<svg width="81" height="86" viewBox="0 0 81 86" fill="none" xmlns="http://www.w3.org/2000/svg">
<path d="M79.5889 44.9692L42.3108 83.2942C42.3108 83.2942 37.897 87.9688 37.897 82.8915C37.897 77.8104 37.897 65.5122 37.897 65.5122C37.897 65.5122 34.902 65.5122 30.3194 65.5122C17.2044 65.5122 12.7059 65.5122 3.00007 65.5122C3.00007 65.5122 0 66.5074 0 62.5C0.0038348 58.485 0 25.8608 0 23C0 20.1392 3.00007 19.997 3.00007 19.997C12.4452 19.997 17.3194 19.997 29.9896 19.997C34.1005 19.997 36.781 19.997 36.781 19.997C36.781 19.997 36.781 10.1454 36.781 3.94454C36.781 -2.22948 41.4135 2.42979 41.4135 2.42979C41.4135 2.42979 76.2373 36.1415 79.888 39.7961C82.5532 42.4459 79.5889 44.9692 79.5889 44.9692Z" fill="#777777"/>
</svg>
