<svg width="19" height="12" viewBox="0 0 19 12" fill="none" xmlns="http://www.w3.org/2000/svg">
<path d="M17.5 9.75L18.2179 10.4461C18.594 10.0583 18.594 9.44174 18.2179 9.05385L17.5 9.75ZM9.5 1.5L10.2179 0.803854C10.0296 0.609625 9.77055 0.5 9.5 0.5C9.22945 0.5 8.97044 0.609625 8.7821 0.803854L9.5 1.5ZM1.5 9.75L0.782099 9.05385C0.405966 9.44174 0.405966 10.0583 0.782099 10.4461L1.5 9.75ZM2.22727 10.5L1.50937 11.1961C1.69771 11.3904 1.95672 11.5 2.22727 11.5C2.49782 11.5 2.75683 11.3904 2.94517 11.1961L2.22727 10.5ZM9.5 3L10.2179 2.30385C10.0296 2.10962 9.77055 2 9.5 2C9.22945 2 8.97044 2.10962 8.7821 2.30385L9.5 3ZM16.7727 10.5L16.0548 11.1961C16.2432 11.3904 16.5022 11.5 16.7727 11.5C17.0433 11.5 17.3023 11.3904 17.4906 11.1961L16.7727 10.5ZM18.2179 9.05385L10.2179 0.803854L8.7821 2.19615L16.7821 10.4461L18.2179 9.05385ZM8.7821 0.803854L0.782099 9.05385L2.2179 10.4461L10.2179 2.19615L8.7821 0.803854ZM0.782099 10.4461L1.50937 11.1961L2.94517 9.80385L2.2179 9.05385L0.782099 10.4461ZM2.94517 11.1961L10.2179 3.69615L8.7821 2.30385L1.50937 9.80385L2.94517 11.1961ZM8.7821 3.69615L16.0548 11.1961L17.4906 9.80385L10.2179 2.30385L8.7821 3.69615ZM17.4906 11.1961L18.2179 10.4461L16.7821 9.05385L16.0548 9.80385L17.4906 11.1961Z" fill="white"/>
</svg>
