<svg width="78" height="104" viewBox="0 0 78 104" fill="none" xmlns="http://www.w3.org/2000/svg">
<path d="M78 24.7693V26H52V0H53.2307C54.5236 6.75992e-06 55.7635 0.513586 56.6778 1.42777L76.572 21.322C77.4863 22.2363 77.9999 23.4763 78 24.7693ZM50.375 32.5C47.6937 32.5 45.5 30.3062 45.5 27.625V0H4.875C2.18258 0 0 2.18258 0 4.875V99.125C0 101.817 2.18258 104 4.875 104H73.125C75.8174 104 78 101.817 78 99.125V32.5H50.375ZM22.8607 35.75C28.2455 35.75 32.6107 40.1152 32.6107 45.5C32.6107 50.8848 28.2455 55.25 22.8607 55.25C17.4759 55.25 13.1107 50.8848 13.1107 45.5C13.1107 40.1152 17.4761 35.75 22.8607 35.75ZM65.1107 84.5H13.1107L13.2092 74.6515L21.2357 66.625C22.1875 65.6732 23.6324 65.7717 24.5842 66.7235L32.6107 74.75L53.6372 53.7235C54.589 52.7717 56.1324 52.7717 57.0844 53.7235L65.1107 61.75V84.5Z" 
fill="#20D4DF"/>
</svg>
