<svg width="78" height="104" viewBox="0 0 78 104" fill="none" xmlns="http://www.w3.org/2000/svg">
<path d="M36.9484 52.0203C35.9328 48.7703 35.9531 42.4937 36.5422 42.4937C38.2484 42.4937 38.0859 49.9891 36.9484 52.0203ZM36.6031 61.6078C35.0391 65.7109 33.0891 70.4031 30.8344 74.3438C34.5516 72.9219 38.7562 70.85 43.6109 69.8953C41.0312 67.9453 38.5531 65.1422 36.6031 61.6078ZM17.4891 86.9578C17.4891 87.1203 20.1703 85.8609 24.5781 78.7922C23.2172 80.0719 18.6672 83.7688 17.4891 86.9578ZM50.375 32.5H78V99.125C78 101.827 75.8266 104 73.125 104H4.875C2.17344 104 0 101.827 0 99.125V4.875C0 2.17344 2.17344 0 4.875 0H45.5V27.625C45.5 30.3062 47.6937 32.5 50.375 32.5ZM48.75 67.3969C44.6875 64.9187 41.9859 61.5062 40.0766 56.4688C40.9906 52.7109 42.4328 47.0031 41.3359 43.4281C40.3812 37.4562 32.7234 38.0453 31.6266 42.0469C30.6109 45.7641 31.5453 51.0047 33.2719 57.6875C30.9156 63.2938 27.4422 70.8094 24.9844 75.1156C24.9641 75.1156 24.9641 75.1359 24.9438 75.1359C19.4391 77.9594 9.99375 84.175 13.8734 88.9484C15.0109 90.35 17.1234 90.9797 18.2406 90.9797C21.8766 90.9797 25.4922 87.3234 30.6516 78.4266C35.8922 76.7 41.6406 74.5469 46.6984 73.7141C51.1063 76.1109 56.2656 77.675 59.6984 77.675C65.6297 77.675 66.0359 71.175 63.7 68.8594C60.8766 66.0969 52.6703 66.8891 48.75 67.3969ZM76.5781 21.3281L56.6719 1.42188C55.7578 0.507812 54.5187 0 53.2188 0H52V26H78V24.7609C78 23.4813 77.4922 22.2422 76.5781 21.3281ZM61.5266 73.1859C62.3594 72.6375 61.0187 70.7687 52.8328 71.3578C60.3688 74.5672 61.5266 73.1859 61.5266 73.1859Z" 
fill="#E92727"/>
</svg>
