<svg width="78" height="104" viewBox="0 0 78 104" fill="none" xmlns="http://www.w3.org/2000/svg">
<path d="M76.5781 21.3281L56.6922 1.42188C55.7781 0.507812 54.5391 0 53.2391 0H52V26H78V24.7609C78 23.4813 77.4922 22.2422 76.5781 21.3281ZM26.0812 68.25C22.4453 68.25 19.5 70.7078 19.5 73.7344C19.5 76.7812 22.4656 79.2188 26.1016 79.2188C29.7375 79.2188 32.6828 76.7609 32.6828 73.7344C32.6828 70.7078 29.7172 68.25 26.0812 68.25ZM45.5 27.625V0H32.5812V6.5H26.0812V0H4.875C2.17344 0 0 2.17344 0 4.875V99.125C0 101.827 2.17344 104 4.875 104H73.125C75.8266 104 78 101.827 78 99.125V32.5H50.375C47.6937 32.5 45.5 30.3062 45.5 27.625ZM19.4797 6.5H25.9797V13H19.4797V6.5ZM26.0406 84.5C19.2969 84.5 14.2594 78.325 15.6 71.7234L19.5813 52V45.5H26.0812V39H19.5813V32.5H26.0812V26H19.5813V19.5H26.0812V13H32.5812V19.5H26.0812V26H32.5812V32.5H26.0812V39H32.5812V45.5H26.0812V52H30.5703C31.7281 52 32.7438 52.8328 32.9672 53.9703L36.4813 71.7844C37.7812 78.3656 32.7437 84.5 26.0406 84.5Z" 
fill="#F9C407"/>
</svg>
