<svg width="78" height="104" viewBox="0 0 78 104" fill="none" xmlns="http://www.w3.org/2000/svg">
<path d="M45.5 27.625V0H4.875C2.17344 0 0 2.17344 0 4.875V99.125C0 101.827 2.17344 104 4.875 104H73.125C75.8266 104 78 101.827 78 99.125V32.5H50.375C47.6937 32.5 45.5 30.3062 45.5 27.625ZM58.5 75.5625C58.5 76.9031 57.4031 78 56.0625 78H21.9375C20.5969 78 19.5 76.9031 19.5 75.5625V73.9375C19.5 72.5969 20.5969 71.5 21.9375 71.5H56.0625C57.4031 71.5 58.5 72.5969 58.5 73.9375V75.5625ZM58.5 62.5625C58.5 63.9031 57.4031 65 56.0625 65H21.9375C20.5969 65 19.5 63.9031 19.5 62.5625V60.9375C19.5 59.5969 20.5969 58.5 21.9375 58.5H56.0625C57.4031 58.5 58.5 59.5969 58.5 60.9375V62.5625ZM58.5 47.9375V49.5625C58.5 50.9031 57.4031 52 56.0625 52H21.9375C20.5969 52 19.5 50.9031 19.5 49.5625V47.9375C19.5 46.5969 20.5969 45.5 21.9375 45.5H56.0625C57.4031 45.5 58.5 46.5969 58.5 47.9375ZM78 24.7609V26H52V0H53.2391C54.5391 0 55.7781 0.507812 56.6922 1.42188L76.5781 21.3281C77.4922 22.2422 78 23.4813 78 24.7609Z" 
fill="#2B71DB"/>
</svg>
